<svg xmlns="http://www.w3.org/2000/svg" width="22" height="23" fill="none" viewBox="0 0 22 23"><path fill="#27272A" d="M2.72254 15.248C4.52628 19.2756 9.00557 21.525 13.3731 20.3547C17.7406 19.1844 20.4951 14.9968 20.0434 10.6069C19.6898 10.8076 19.3034 11.0059 18.8942 11.2002C17.0465 12.0777 14.4738 12.9949 11.6069 13.7631C8.73998 14.5313 6.05333 15.0233 4.01443 15.1873C3.5629 15.2236 3.12914 15.245 2.72254 15.248Z"/><path fill="#27272A" d="M8.62807 2.64603C12.6382 1.57152 16.7425 3.38021 18.7833 6.80013C19.3848 6.7957 19.9062 6.8348 20.3135 6.92836C20.547 6.982 20.7681 7.05902 20.95 7.17406C21.1347 7.29083 21.3078 7.46651 21.3753 7.71872C21.457 8.02344 21.3505 8.30521 21.2106 8.51982C21.0696 8.73618 20.8586 8.9427 20.6125 9.13824C20.1172 9.53165 19.3895 9.95031 18.501 10.3723C16.7171 11.2194 14.1998 12.1194 11.3696 12.8777C8.53947 13.636 5.90946 14.1153 3.94096 14.2736C2.96052 14.3525 2.121 14.3537 1.49538 14.2606C1.18443 14.2144 0.898499 14.141 0.66816 14.0242C0.439672 13.9083 0.206613 13.7175 0.124966 13.4127C0.057386 13.1605 0.119444 12.9218 0.220965 12.7284C0.320971 12.5378 0.473933 12.3606 0.649364 12.1973C0.955335 11.9127 1.38731 11.6181 1.91044 11.3212C1.96787 7.33906 4.61794 3.72055 8.62807 2.64603Z"/></svg>